<svg width="157" height="70" viewBox="0 0 157 70" fill="none" xmlns="http://www.w3.org/2000/svg">
<rect x="2" y="2" width="66" height="66" rx="12" stroke="url(#paint0_linear_4103_5)" stroke-width="4"/>
<path d="M47.5173 51.04C45.784 51.04 44.544 50.5467 43.7973 49.56C43.0507 48.5467 42.6773 47.0667 42.6773 45.12C42.6773 43.1733 43.304 38.6933 44.5573 31.68H43.9173C42.2907 33.8133 40.944 36.36 39.8773 39.32C38.8107 42.28 38.1573 44.9467 37.9173 47.32C36.6107 48.5467 35.104 49.16 33.3973 49.16C32.704 49.16 32.0907 48.92 31.5573 48.44C31.0507 47.9333 30.544 47.0667 30.0373 45.84C29.0507 43.36 28.344 38.64 27.9173 31.68H27.2773C25.9707 37.4133 25.3173 41.4533 25.3173 43.8C25.3173 46.1467 25.7173 47.96 26.5173 49.24C24.9173 50.44 23.2507 51.04 21.5173 51.04C19.784 51.04 18.544 50.5467 17.7973 49.56C17.0507 48.5467 16.6773 47.0533 16.6773 45.08C16.6773 43.08 17.5173 37.44 19.1973 28.16L17.0773 23.88C20.0907 21.9333 22.8373 20.96 25.3173 20.96C26.4107 20.96 27.3307 21.08 28.0773 21.32C28.8507 21.5333 29.584 21.96 30.2773 22.6C30.9973 23.24 31.584 24.1333 32.0373 25.28C33.0773 27.8667 33.824 31.64 34.2773 36.6H34.7573C36.144 32.52 38.064 29.0133 40.5173 26.08C41.8507 24.5067 43.4373 23.2667 45.2773 22.36C47.144 21.4533 49.1573 21 51.3173 21C53.3707 21 54.3973 22.24 54.3973 24.72C54.3973 25.5467 53.8773 28.6267 52.8373 33.96C51.824 39.2667 51.3173 42.4267 51.3173 43.44C51.3173 46.0267 51.7173 47.96 52.5173 49.24C50.9173 50.44 49.2507 51.04 47.5173 51.04Z" fill="white"/>
<path d="M91.7709 31.24C92.5443 30.1733 93.5976 29.3067 94.9309 28.64C96.2909 27.9467 97.7976 27.6 99.4509 27.6C101.398 27.6 103.158 28.0667 104.731 29C106.304 29.9333 107.544 31.2667 108.451 33C109.358 34.7067 109.811 36.6667 109.811 38.88C109.811 41.0933 109.358 43.08 108.451 44.84C107.544 46.5733 106.291 47.9333 104.691 48.92C103.118 49.88 101.371 50.36 99.4509 50.36C97.7443 50.36 96.2243 50.0267 94.8909 49.36C93.5843 48.6933 92.5443 47.84 91.7709 46.8V50H87.2109V20.4H91.7709V31.24ZM105.171 38.88C105.171 37.36 104.851 36.0533 104.211 34.96C103.598 33.84 102.771 33 101.731 32.44C100.718 31.8533 99.6243 31.56 98.4509 31.56C97.3043 31.56 96.2109 31.8533 95.1709 32.44C94.1576 33.0267 93.3309 33.88 92.6909 35C92.0776 36.12 91.7709 37.44 91.7709 38.96C91.7709 40.48 92.0776 41.8133 92.6909 42.96C93.3309 44.08 94.1576 44.9333 95.1709 45.52C96.2109 46.1067 97.3043 46.4 98.4509 46.4C99.6243 46.4 100.718 46.1067 101.731 45.52C102.771 44.9067 103.598 44.0267 104.211 42.88C104.851 41.7333 105.171 40.4 105.171 38.88ZM123.88 50.36C121.8 50.36 119.92 49.8933 118.24 48.96C116.56 48 115.24 46.6667 114.28 44.96C113.32 43.2267 112.84 41.2267 112.84 38.96C112.84 36.72 113.334 34.7333 114.32 33C115.307 31.2667 116.654 29.9333 118.36 29C120.067 28.0667 121.974 27.6 124.08 27.6C126.187 27.6 128.094 28.0667 129.8 29C131.507 29.9333 132.854 31.2667 133.84 33C134.827 34.7333 135.32 36.72 135.32 38.96C135.32 41.2 134.814 43.1867 133.8 44.92C132.787 46.6533 131.4 48 129.64 48.96C127.907 49.8933 125.987 50.36 123.88 50.36ZM123.88 46.4C125.054 46.4 126.147 46.12 127.16 45.56C128.2 45 129.04 44.16 129.68 43.04C130.32 41.92 130.64 40.56 130.64 38.96C130.64 37.36 130.334 36.0133 129.72 34.92C129.107 33.8 128.294 32.96 127.28 32.4C126.267 31.84 125.174 31.56 124 31.56C122.827 31.56 121.734 31.84 120.72 32.4C119.734 32.96 118.947 33.8 118.36 34.92C117.774 36.0133 117.48 37.36 117.48 38.96C117.48 41.3333 118.08 43.1733 119.28 44.48C120.507 45.76 122.04 46.4 123.88 46.4ZM149.268 38.84L156.388 50H151.228L146.468 42.52L141.988 50H137.228L144.348 39.16L137.228 27.96H142.388L147.148 35.44L151.628 27.96H156.388L149.268 38.84Z" fill="white"/>
<defs>
<linearGradient id="paint0_linear_4103_5" x1="3.29954e-07" y1="5" x2="70" y2="70" gradientUnits="userSpaceOnUse">
<stop stop-color="#326CFF"/>
<stop offset="1" stop-color="#26FFF2"/>
</linearGradient>
</defs>
</svg>
